HIERARCHY
ROOT joint_Root
{
	OFFSET 0.0 0.0 0.0
	CHANNELS 6 Xposition Yposition Zposition Zrotation Xrotation Yrotation 
	JOINT Hips
	{
		OFFSET 4.5925 91.4895 -427.239
		CHANNELS 6 Xposition Yposition Zposition Zrotation Xrotation Yrotation 
		JOINT Spine
		{
			OFFSET 15.7357 0.0 0.0
			CHANNELS 6 Xposition Yposition Zposition Zrotation Xrotation Yrotation 
			JOINT Chest
			{
				OFFSET 8.98455 -0.406207 0.0
				CHANNELS 6 Xposition Yposition Zposition Zrotation Xrotation Yrotation 
				JOINT Neck
				{
					OFFSET 16.3773 0.0 0.0
					CHANNELS 6 Xposition Yposition Zposition Zrotation Xrotation Yrotation 
					JOINT Head
					{
						OFFSET 6.45672 0.0 0.0
						CHANNELS 6 Xposition Yposition Zposition Zrotation Xrotation Yrotation 
						End Site
						{
							OFFSET 0.0 0.0 0.0
						}
					}
				}
				JOINT Shoulder_L
				{
					OFFSET 12.9942 -0.242716 4.98039
					CHANNELS 6 Xposition Yposition Zposition Zrotation Xrotation Yrotation 
					JOINT UpperArm_L
					{
						OFFSET 5.34809 0.0 0.0
						CHANNELS 6 Xposition Yposition Zposition Zrotation Xrotation Yrotation 
						JOINT LowerArm_L
						{
							OFFSET 24.3286 1.87007e-05 0.0
							CHANNELS 6 Xposition Yposition Zposition Zrotation Xrotation Yrotation 
							JOINT Hand_L
							{
								OFFSET 22.2916 0.0 0.0
								CHANNELS 6 Xposition Yposition Zposition Zrotation Xrotation Yrotation 
								End Site
								{
									OFFSET 0.0 0.0 0.0
								}
							}
						}
					}
				}
				JOINT Shoulder_R
				{
					OFFSET 12.9945 -0.242716 -4.98039
					CHANNELS 6 Xposition Yposition Zposition Zrotation Xrotation Yrotation 
					JOINT UpperArm_R
					{
						OFFSET -5.34813 0.0 0.0
						CHANNELS 6 Xposition Yposition Zposition Zrotation Xrotation Yrotation 
						JOINT LowerArm_R
						{
							OFFSET -24.3289 0.000322201 0.0
							CHANNELS 6 Xposition Yposition Zposition Zrotation Xrotation Yrotation 
							JOINT Hand_R
							{
								OFFSET -22.2915 -0.000108084 0.0
								CHANNELS 6 Xposition Yposition Zposition Zrotation Xrotation Yrotation 
								End Site
								{
									OFFSET 0.0 0.0 0.0
								}
							}
						}
					}
				}
			}
		}
		JOINT UpperLeg_L
		{
			OFFSET -2.19248 -6.46944 0.0
			CHANNELS 6 Xposition Yposition Zposition Zrotation Xrotation Yrotation 
			JOINT LowerLeg_L
			{
				OFFSET 39.0811 0.0 -1.23785e-05
				CHANNELS 6 Xposition Yposition Zposition Zrotation Xrotation Yrotation 
				JOINT Foot_L
				{
					OFFSET 40.9854 0.0 -1.26872e-05
					CHANNELS 6 Xposition Yposition Zposition Zrotation Xrotation Yrotation 
					JOINT Toes_L
					{
						OFFSET 11.7543 0.0 0.0
						CHANNELS 6 Xposition Yposition Zposition Zrotation Xrotation Yrotation 
						End Site
						{
							OFFSET 0.0 0.0 0.0
						}
					}
				}
			}
		}
		JOINT UpperLeg_R
		{
			OFFSET -2.19251 6.46944 0.0
			CHANNELS 6 Xposition Yposition Zposition Zrotation Xrotation Yrotation 
			JOINT LowerLeg_R
			{
				OFFSET -39.0811 -0.00228153 -0.0401928
				CHANNELS 6 Xposition Yposition Zposition Zrotation Xrotation Yrotation 
				JOINT Foot_R
				{
					OFFSET -40.9854 0.0 0.0
					CHANNELS 6 Xposition Yposition Zposition Zrotation Xrotation Yrotation 
					JOINT Toes_R
					{
						OFFSET -11.7543 0.0 0.0
						CHANNELS 6 Xposition Yposition Zposition Zrotation Xrotation Yrotation 
						End Site
						{
							OFFSET 0.0 0.0 0.0
						}
					}
				}
			}
		}
	}
}
MOTION
Frames:	4
Frame Time:	0.0333333
0.000000 0.000000 0.000000 0.000000 0.000000 -0.000000 -1.039200 92.155600 1.159010 89.796700 -5.977840 3.705970 15.735700 0.000005 -0.000001 68.400100 85.983500 -64.117000 8.984550 -0.406207 -0.000000 -0.160242 -3.252270 8.558720 16.377300 -0.000001 -0.000001 6.944470 -2.513800 -0.076735 6.456720 -0.000001 -0.000000 -0.004602 -3.588720 4.319590 12.994200 -0.242716 4.980390 -83.994700 -12.411700 -63.921000 5.348090 -0.000007 -0.000001 -46.899400 -70.326800 -88.272100 24.328600 0.000019 0.000005 6.523280 7.599940 -40.847500 22.291600 -0.000001 0.000005 14.999400 5.392000 -2.679440 12.994500 -0.242716 -4.980390 87.326900 9.164630 -73.662500 -5.348130 -0.000001 -0.000004 -53.092600 24.749300 -0.447195 -24.328900 0.000322 -0.000009 1.526800 3.119430 -26.111700 -22.291500 -0.000108 -0.000004 16.165900 5.480880 -5.782270 -2.192480 -6.469440 -0.000000 -175.140000 -16.364000 0.460209 39.081100 -0.000007 -0.000012 -0.111335 0.297377 20.525500 40.985400 -0.000006 -0.000013 -0.364202 7.628860 -66.750500 11.754300 -0.000000 0.000003 -0.000120 -0.001201 -16.623500 -2.192510 6.469440 -0.000001 174.569000 22.972200 -179.596000 -39.081100 -0.002282 -0.040193 -0.108477 0.294634 20.779000 -40.985400 0.000008 0.000006 3.491560 20.201000 -67.474900 -11.754300 -0.000006 -0.000006 -0.034952 -0.041736 -16.547300
0.000000 0.000000 0.000000 0.000000 0.000000 -0.000000 -1.149260 92.181000 1.035220 89.803300 -5.712880 3.539840 15.735700 0.000005 -0.000001 68.121900 86.022500 -63.984500 8.984550 -0.406207 -0.000000 -0.252265 -3.252750 8.264830 16.377300 -0.000001 -0.000001 6.659770 -2.495040 0.052530 6.456720 -0.000001 -0.000000 -0.081854 -3.356050 4.315130 12.994200 -0.242716 4.980390 -84.585300 -11.419100 -64.416900 5.348090 -0.000007 -0.000001 -43.796200 -69.218700 -83.341800 24.328600 0.000019 0.000005 6.319190 6.194070 -45.751100 22.291600 -0.000001 0.000005 15.502900 5.392030 -2.680010 12.994500 -0.242716 -4.980390 87.228800 9.416030 -73.518600 -5.348130 -0.000001 -0.000004 -53.390400 24.619600 -0.993525 -24.328900 0.000322 -0.000009 1.348830 2.734040 -26.290100 -22.291500 -0.000108 -0.000004 16.395200 5.476720 -5.623480 -2.192480 -6.469440 -0.000000 -175.123000 -16.330400 0.190590 39.081100 -0.000007 -0.000012 -0.109772 0.294438 20.446400 40.985400 -0.000006 -0.000013 -0.394705 7.881610 -66.568900 11.754300 -0.000000 0.000003 -0.000109 -0.001106 -16.619900 -2.192510 6.469440 -0.000001 174.714000 23.207800 -179.757000 -39.081100 -0.002282 -0.040193 -0.113940 0.311360 20.636700 -40.985400 0.000008 0.000006 3.346990 20.141700 -67.289400 -11.754300 -0.000006 -0.000006 -0.000636 -0.000762 -16.573500
0.000000 0.000000 0.000000 0.000000 0.000000 -0.000000 -1.290850 92.223600 0.873698 89.802800 -5.379790 3.355890 15.735700 0.000005 -0.000001 67.986000 86.031200 -64.049600 8.984550 -0.406207 -0.000000 -0.282569 -3.250740 7.862070 16.377300 -0.000001 -0.000001 6.182250 -2.516440 0.273218 6.456720 -0.000001 -0.000000 -0.059587 -3.153610 4.689970 12.994200 -0.242716 4.980390 -85.100000 -10.547300 -64.904000 5.348090 -0.000007 -0.000001 -40.322200 -67.138800 -76.262300 24.328600 0.000019 0.000005 5.680210 4.209190 -53.597200 22.291600 -0.000001 0.000005 16.616400 5.400880 -2.962980 12.994500 -0.242716 -4.980390 87.133300 9.667490 -73.396000 -5.348130 -0.000001 -0.000004 -53.925000 24.660100 -1.960080 -24.328900 0.000322 -0.000009 0.960983 2.006810 -25.617300 -22.291500 -0.000108 -0.000004 16.943600 5.475570 -5.580130 -2.192480 -6.469440 -0.000000 -175.098000 -16.183700 -0.063098 39.081100 -0.000007 -0.000012 -0.108737 0.294836 20.244200 40.985400 -0.000006 -0.000013 -0.470014 8.074330 -66.299900 11.754300 -0.000000 0.000003 -0.000119 -0.001192 -16.623100 -2.192510 6.469440 -0.000001 174.917000 23.474000 -179.896000 -39.081100 -0.002282 -0.040193 -0.112777 0.312232 20.396800 -40.985400 0.000008 0.000006 3.325950 20.052800 -67.096200 -11.754300 -0.000006 -0.000006 -0.000038 -0.000642 -16.599900
0.000000 0.000000 0.000000 0.000000 0.000000 -0.000000 -1.423060 92.253000 0.692760 89.816500 -5.139440 3.288820 15.735700 0.000005 -0.000001 68.940900 86.000800 -65.206600 8.984550 -0.406207 -0.000000 -0.188053 -3.132300 7.460550 16.377300 -0.000001 -0.000001 5.558970 -2.589800 0.488485 6.456720 -0.000001 -0.000000 -0.187544 -3.027930 5.038550 12.994200 -0.242716 4.980390 -85.732200 -9.408270 -65.463400 5.348090 -0.000007 -0.000001 -36.546400 -63.727700 -67.686600 24.328600 0.000019 0.000005 4.418140 2.221670 -63.378600 22.291600 -0.000001 0.000005 17.843300 5.407540 -3.185370 12.994500 -0.242716 -4.980390 87.093400 9.742450 -73.298500 -5.348130 -0.000001 -0.000004 -54.783200 24.707700 -3.131890 -24.328900 0.000322 -0.000009 0.826478 1.822040 -24.432000 -22.291500 -0.000108 -0.000004 17.528300 5.466780 -5.251770 -2.192480 -6.469440 -0.000000 -175.016000 -16.280600 -0.224508 39.081100 -0.000007 -0.000012 -0.108683 0.296556 20.127200 40.985400 -0.000006 -0.000013 -0.512375 8.425280 -66.070900 11.754300 -0.000000 0.000003 -0.000110 -0.001115 -16.620300 -2.192510 6.469440 -0.000001 175.047000 23.711700 180.000000 -39.081100 -0.002282 -0.040193 -0.114680 0.319425 20.275200 -40.985400 0.000008 0.000006 3.263440 20.055200 -66.917300 -11.754300 -0.000006 -0.000006 -0.000069 -0.001160 -16.620900
